<?xml version="1.0" encoding="UTF-8"?>
<svg version="1.1" xmlns="http://www.w3.org/2000/svg" width="700" height="573">
<path d="M0 0 C0.76119141 0.21430664 1.52238281 0.42861328 2.30664062 0.64941406 C39.23844642 11.26537665 69.47355108 36.29042426 88.09375 69.70703125 C93.78296366 80.30022503 97.71248469 91.45472307 101 103 C101.1949707 103.67482422 101.38994141 104.34964844 101.59082031 105.04492188 C110.84205021 139.04274953 102.71790936 177.96572348 86.05029297 208.17724609 C74.59885904 228.05088759 58.3140715 244.759334 39 257 C37.42025391 258.01513672 37.42025391 258.01513672 35.80859375 259.05078125 C13.78493837 272.44178777 -10.81172912 278.22371614 -36.375 278.25 C-37.1387796 278.25133942 -37.9025592 278.25267883 -38.68948364 278.25405884 C-52.95883528 278.24861675 -65.96133576 276.94973749 -79.60546875 272.453125 C-84.43212576 271.53976087 -88.78838461 273.17356108 -93.34716797 274.71411133 C-118.83770087 283.28589674 -149.04337468 284.57933459 -175 277 C-176.14178711 276.67854004 -176.14178711 276.67854004 -177.30664062 276.35058594 C-214.23844642 265.73462335 -244.47355108 240.70957574 -263.09375 207.29296875 C-268.78296366 196.69977497 -272.71248469 185.54527693 -276 174 C-276.1949707 173.32517578 -276.38994141 172.65035156 -276.59082031 171.95507812 C-285.84205021 137.95725047 -277.71790936 99.03427652 -261.05029297 68.82275391 C-249.59885904 48.94911241 -233.3140715 32.240666 -214 20 C-212.42025391 18.98486328 -212.42025391 18.98486328 -210.80859375 17.94921875 C-188.78494049 4.55821352 -164.18826865 -1.2237193 -138.625 -1.25 C-137.86088806 -1.25133942 -137.09677612 -1.25267883 -136.30950928 -1.25405884 C-124.29822701 -1.24948028 -112.46579961 -1.07847259 -101.03515625 3.078125 C-92.12815715 6.15708765 -85.68656308 3.47313256 -77.09375 0.640625 C-53.52193872 -7.1054024 -23.7253052 -6.92778912 0 0 Z M-66 30 C-67.22074219 30.3403125 -68.44148437 30.680625 -69.69921875 31.03125 C-87.77540576 36.53027503 -101.48422796 46.10407036 -114.69384766 59.48803711 C-116.12480229 60.93729977 -117.56364907 62.37834689 -119.00390625 63.81835938 C-122.85826161 67.69677105 -126.65089773 71.57312776 -130.21337891 75.72216797 C-134.49614228 80.65047498 -139.12055678 85.20873506 -143.765625 89.79296875 C-145.16394627 91.18188099 -146.56226172 92.57079915 -147.96023178 93.96006489 C-151.37356037 97.35061257 -154.79244371 100.73554284 -158.21386719 104.11791992 C-160.14660463 106.02901881 -162.07662125 107.94279265 -164.00384521 109.85945129 C-165.81034309 111.65563893 -167.62093772 113.44771807 -169.43609619 115.2351532 C-170.25414734 116.04982559 -171.07219849 116.86449799 -171.91503906 117.70385742 C-172.63338928 118.41475021 -173.3517395 119.12564301 -174.09185791 119.858078 C-176.08699101 122.09764889 -177.54169026 124.38552945 -179 127 C-170.46046629 133.45939089 -161.73760561 139.58420702 -152.8125 145.5 C-151.81226807 146.16306152 -150.81203613 146.82612305 -149.78149414 147.50927734 C-148.74758545 148.1945752 -147.71367676 148.87987305 -146.6484375 149.5859375 C-140.01009463 153.9868166 -133.39135787 158.41609136 -126.79135132 162.87426758 C-125.56984728 163.69837612 -124.34723598 164.52084619 -123.1234436 165.34155273 C-105.50324177 177.16103629 -105.50324177 177.16103629 -103 183 C-102.21831657 188.58345308 -102.71786348 193.29560432 -106 198 C-109.39463958 201.2249076 -112.4221286 202.37490935 -117 202.8125 C-122.09226233 202.5526999 -125.43677099 200.82452431 -129.5546875 198.00390625 C-130.16214813 197.60037933 -130.76960876 197.19685242 -131.39547729 196.78109741 C-133.27101382 195.53131671 -135.13590981 194.26677096 -137 193 C-138.09086914 192.26918213 -139.18173828 191.53836426 -140.30566406 190.78540039 C-143.58811718 188.57882909 -146.85800171 186.354334 -150.125 184.125 C-151.3327179 183.30287307 -152.54056619 182.48093767 -153.74853516 181.65917969 C-156.24885801 179.95806871 -158.74862958 178.2561521 -161.24804688 176.55371094 C-165.51436917 173.64872777 -169.78573086 170.75120024 -174.05821228 167.85528564 C-176.99484644 165.86474755 -179.93051868 163.87283332 -182.86352539 161.87695312 C-188.4056971 158.10680829 -193.95838751 154.35572793 -199.54296875 150.6484375 C-200.56148926 149.96749023 -201.58000977 149.28654297 -202.62939453 148.58496094 C-204.52715659 147.3168376 -206.43016914 146.05652185 -208.33935547 144.80566406 C-216.26909778 139.48461029 -216.26909778 139.48461029 -218 135 C-218.50390625 132.16796875 -218.50390625 132.16796875 -218.5625 129.1875 C-218.60503906 128.21167969 -218.64757812 127.23585938 -218.69140625 126.23046875 C-216.81672114 117.47134679 -208.21157279 110.9990954 -202.0625 105 C-196.69442866 99.7395292 -191.43939221 94.48332174 -186.54858398 88.7734375 C-184.31600958 86.21669456 -181.92878859 83.87164062 -179.5 81.5 C-176.44464436 78.49003881 -173.45910758 75.464312 -170.6875 72.1875 C-167.33111671 68.24598451 -163.6768156 64.63862484 -160 61 C-154.61461324 55.68798763 -154.61461324 55.68798763 -149.5625 50.0625 C-147.2190594 47.33970167 -144.80170422 44.7470202 -142.25 42.21875 C-141.56478271 41.53675537 -140.87956543 40.85476074 -140.17358398 40.15209961 C-138.77730274 38.77002823 -137.3784141 37.3905856 -135.97680664 36.01391602 C-135.33606201 35.38155029 -134.69531738 34.74918457 -134.03515625 34.09765625 C-133.15935913 33.23926147 -133.15935913 33.23926147 -132.26586914 32.36352539 C-130.88660407 31.18794683 -130.88660407 31.18794683 -131 30 C-162.70025884 28.87454702 -190.55373601 38.30889074 -214.125 59.8125 C-234.08664865 78.6261641 -247.37456348 105.33082689 -248.23828125 132.95703125 C-248.76476473 165.5990068 -239.30529844 193.71862182 -216.73510742 217.66601562 C-198.26269604 236.59089935 -171.97338353 249.56891564 -145.328125 250.30078125 C-142.9688258 250.32009271 -140.60935224 250.32357602 -138.25 250.3125 C-137.0129834 250.30758545 -135.7759668 250.3026709 -134.50146484 250.29760742 C-125.63191855 250.18386538 -117.53917667 249.55348261 -109 247 C-107.85273438 246.67128906 -106.70546875 246.34257812 -105.5234375 246.00390625 C-81.91985341 238.44133884 -60.78926221 219.96657886 -44.95068359 201.4440918 C-40.68272754 196.55744017 -36.10515823 192.01556611 -31.48828125 187.4609375 C-29.66067423 185.64596731 -27.83320433 183.83085904 -26.00585938 182.015625 C-23.15059575 179.18522829 -20.29393957 176.3562743 -17.43432617 173.53027344 C-14.65533645 170.78332684 -11.88440218 168.02832216 -9.11328125 165.2734375 C-8.25906082 164.4326767 -7.40484039 163.59191589 -6.5247345 162.72567749 C-2.49144753 158.70946854 1.09854573 154.90954388 4 150 C-4.53953371 143.54060911 -13.26239439 137.41579298 -22.1875 131.5 C-23.18773193 130.83693848 -24.18796387 130.17387695 -25.21850586 129.49072266 C-26.25241455 128.8054248 -27.28632324 128.12012695 -28.3515625 127.4140625 C-34.98990537 123.0131834 -41.60864213 118.58390864 -48.20864868 114.12573242 C-49.43015272 113.30162388 -50.65276402 112.47915381 -51.8765564 111.65844727 C-69.49675823 99.83896371 -69.49675823 99.83896371 -72 94 C-72.78168343 88.41654692 -72.28213652 83.70439568 -69 79 C-65.60536042 75.7750924 -62.5778714 74.62509065 -58 74.1875 C-52.90773767 74.4473001 -49.56322901 76.17547569 -45.4453125 78.99609375 C-44.83785187 79.39962067 -44.23039124 79.80314758 -43.60452271 80.21890259 C-41.72898618 81.46868329 -39.86409019 82.73322904 -38 84 C-36.90913086 84.73081787 -35.81826172 85.46163574 -34.69433594 86.21459961 C-31.41188282 88.42117091 -28.14199829 90.645666 -24.875 92.875 C-23.6672821 93.69712693 -22.45943381 94.51906233 -21.25146484 95.34082031 C-18.75114199 97.04193129 -16.25137042 98.7438479 -13.75195312 100.44628906 C-9.48563083 103.35127223 -5.21426914 106.24879976 -0.94178772 109.14471436 C1.99484644 111.13525245 4.93051868 113.12716668 7.86352539 115.12304688 C13.4056971 118.89319171 18.95838751 122.64427207 24.54296875 126.3515625 C25.56148926 127.03250977 26.58000977 127.71345703 27.62939453 128.41503906 C29.52715659 129.6831624 31.43016914 130.94347815 33.33935547 132.19433594 C41.26909778 137.51538971 41.26909778 137.51538971 43 142 C43.50390625 144.83203125 43.50390625 144.83203125 43.5625 147.8125 C43.60503906 148.78832031 43.64757812 149.76414062 43.69140625 150.76953125 C42.10260045 158.19293461 35.37237031 163.90546751 30.09765625 169.0625 C29.4568663 169.69808838 28.81607635 170.33367676 28.15586853 170.98852539 C26.1295221 172.99724954 24.0965626 174.99909226 22.0625 177 C19.38332564 179.64242081 16.70739706 182.2880675 14.03515625 184.9375 C13.40094757 185.56611938 12.76673889 186.19473877 12.11331177 186.84240723 C8.35323364 190.59018262 4.74026539 194.40911137 1.31030273 198.46484375 C-0.5106253 200.59825077 -2.48787582 202.54793922 -4.5 204.5 C-7.24500542 207.20803565 -9.8727091 209.94169249 -12.375 212.875 C-15.26214781 216.24557721 -18.34246618 219.38504207 -21.5 222.5 C-25.23107014 226.18082849 -28.76826501 229.95317984 -32.1640625 233.9453125 C-35.30001351 237.45490874 -38.6918305 240.709611 -42.05859375 243.99609375 C-44.11596963 245.65468518 -44.11596963 245.65468518 -44 247 C-12.29974116 248.12545298 15.55373601 238.69110926 39.125 217.1875 C59.08664865 198.3738359 72.37456348 171.66917311 73.23828125 144.04296875 C73.76476473 111.4009932 64.30529844 83.28137818 41.73510742 59.33398438 C23.26269604 40.40910065 -3.02661647 27.43108436 -29.671875 26.69921875 C-32.03117419 26.67990594 -34.39064776 26.67642474 -36.75 26.6875 C-38.60661255 26.69487183 -38.60661255 26.69487183 -40.50073242 26.70239258 C-49.38008878 26.81620803 -57.44416862 27.48298199 -66 30 Z " fill="#DF5C28" transform="translate(435,91)"/>
<path d="M0 0 C0.7637796 -0.00133942 1.5275592 -0.00267883 2.31448364 -0.00405884 C13.36687335 0.00015636 23.87781278 0.44308757 34.625 3.25 C35.76195312 3.53617187 36.89890625 3.82234375 38.0703125 4.1171875 C40.60502744 4.78421775 43.11802218 5.48653591 45.625 6.25 C45.625 6.91 45.625 7.57 45.625 8.25 C45.11227539 8.50579834 44.59955078 8.76159668 44.07128906 9.02514648 C27.07900217 17.48732471 27.07900217 17.48732471 12.47265625 29.4765625 C8.12592217 32.18358208 3.95730727 31.75492863 -1.0625 31.75 C-31.82370031 32.42009402 -59.47494503 45.18405028 -80.75390625 67.296875 C-102.9326485 92.28514496 -110.18239292 122.44293443 -108.375 155.25 C-105.18884869 183.4975915 -89.15395068 210.12576806 -67.234375 227.83984375 C-47.73995434 242.88448228 -24.13366339 250.67755632 0.375 250.5625 C1.6120166 250.55758545 2.8490332 250.5526709 4.12353516 250.54760742 C12.99308145 250.43386538 21.08582333 249.80348261 29.625 247.25 C30.77226562 246.92128906 31.91953125 246.59257812 33.1015625 246.25390625 C56.25855173 238.83442744 77.09464638 220.89907716 92.66064453 202.70776367 C96.93380581 197.81711168 101.51525126 193.27009474 106.13671875 188.7109375 C107.96432577 186.89596731 109.79179567 185.08085904 111.61914062 183.265625 C114.47440425 180.43522829 117.33106043 177.6062743 120.19067383 174.78027344 C122.96966355 172.03332684 125.74059782 169.27832216 128.51171875 166.5234375 C129.36593918 165.6826767 130.22015961 164.84191589 131.1002655 163.97567749 C135.13355247 159.95946854 138.72354573 156.15954388 141.625 151.25 C132.1915957 144.58867955 122.75293759 137.94072548 113.125 131.5625 C105.69459283 126.63254623 98.27460366 121.6876461 90.88061523 116.70321655 C89.64354431 115.87062671 88.40513429 115.04002245 87.1652832 114.21157837 C68.29066239 101.59525281 68.29066239 101.59525281 65.625 95.25 C64.83828833 89.63063096 65.40297522 85.02748502 68.625 80.25 C73.44630295 75.89906807 76.79787435 74.5625201 83.25439453 74.67529297 C87.24095121 75.35502312 89.93384661 76.98303229 93.1953125 79.234375 C93.8016452 79.63874786 94.40797791 80.04312073 95.03268433 80.45974731 C96.90463224 81.71195352 98.76499197 82.98014864 100.625 84.25 C101.71554687 84.98105957 102.80609375 85.71211914 103.9296875 86.46533203 C107.21292094 88.67100425 110.48288344 90.89558529 113.75 93.125 C114.9577179 93.94712693 116.16556619 94.76906233 117.37353516 95.59082031 C119.87385801 97.29193129 122.37362958 98.9938479 124.87304688 100.69628906 C129.13931657 103.60123641 133.41059719 106.49877038 137.68307495 109.39457703 C140.6206316 111.38568372 143.55711915 113.37831648 146.49072266 115.37524414 C152.01830222 119.13644635 157.55732464 122.87627122 163.1328125 126.56640625 C164.14682129 127.2428418 165.16083008 127.91927734 166.20556641 128.61621094 C168.08967898 129.87228598 169.9796074 131.11970099 171.87646484 132.35644531 C177.41271516 136.06437594 181.8140911 139.30076833 183.2265625 146.1796875 C183.23429687 147.15164062 183.24203125 148.12359375 183.25 149.125 C183.28351563 150.09179688 183.31703125 151.05859375 183.3515625 152.0546875 C181.66899186 159.45437989 175.00114908 165.15177304 169.72265625 170.3125 C169.0818663 170.94808838 168.44107635 171.58367676 167.78086853 172.23852539 C165.7545221 174.24724954 163.7215626 176.24909226 161.6875 178.25 C159.00832564 180.89242081 156.33239706 183.5380675 153.66015625 186.1875 C153.02594757 186.81611938 152.39173889 187.44473877 151.73831177 188.09240723 C147.97823364 191.84018262 144.36526539 195.65911137 140.93530273 199.71484375 C139.1143747 201.84825077 137.13712418 203.79793922 135.125 205.75 C132.37999458 208.45803565 129.7522909 211.19169249 127.25 214.125 C124.362852 217.49557743 121.28253002 220.63503864 118.125 223.75 C115.00920505 226.82390191 111.96622742 229.91702168 109.125 233.25 C101.4920386 242.1187742 93.38896858 249.77402596 83.625 256.25 C83.05185059 256.63510742 82.47870117 257.02021484 81.88818359 257.41699219 C56.85240667 274.12517674 31.26826603 282.70820453 1.0625 282.625 C0.31621338 282.62445618 -0.43007324 282.62391235 -1.19897461 282.62335205 C-13.31737385 282.58286237 -24.68704529 281.66288278 -36.375 278.25 C-37.51678711 277.92854004 -37.51678711 277.92854004 -38.68164062 277.60058594 C-75.61344642 266.98462335 -105.84855108 241.95957574 -124.46875 208.54296875 C-130.15796366 197.94977497 -134.08748469 186.79527693 -137.375 175.25 C-137.5699707 174.57517578 -137.76494141 173.90035156 -137.96582031 173.20507812 C-147.21705021 139.20725047 -139.09290936 100.28427652 -122.42529297 70.07275391 C-110.97385904 50.19911241 -94.6890715 33.490666 -75.375 21.25 C-73.79525391 20.23486328 -73.79525391 20.23486328 -72.18359375 19.19921875 C-50.15993837 5.80821223 -25.56327088 0.02628386 0 0 Z " fill="#DC781F" transform="translate(296.375,89.75)"/>
<path d="M0 0 C3.96 0 7.92 0 12 0 C14.31 7.59 16.62 15.18 19 23 C21.31 15.41 23.62 7.82 26 0 C30.29 0 34.58 0 39 0 C41.31 7.26 43.62 14.52 46 22 C47.95860488 16.77705366 49.70003247 11.8343663 51.1875 6.5 C51.53167969 5.2728125 51.87585938 4.045625 52.23046875 2.78125 C52.61138672 1.40453125 52.61138672 1.40453125 53 0 C56.96 0 60.92 0 65 0 C64.39845519 5.06204863 63.30520971 9.75373467 61.75 14.61328125 C61.53182617 15.30890671 61.31365234 16.00453217 61.08886719 16.72123718 C60.630795 18.17832164 60.17014866 19.63459914 59.70703125 21.09008789 C58.99697913 23.32199549 58.29470384 25.55623576 57.59375 27.79101562 C57.14627896 29.211078 56.69837767 30.63100488 56.25 32.05078125 C56.03956055 32.71846024 55.82912109 33.38613922 55.61230469 34.0740509 C54.11750188 38.76499624 54.11750188 38.76499624 53 41 C48.71 41 44.42 41 40 41 C37.69 33.41 35.38 25.82 33 18 C30.58187872 23.55564213 30.58187872 23.55564213 28.61328125 29.18359375 C28.39736328 29.88291016 28.18144531 30.58222656 27.95898438 31.30273438 C27.63897461 32.35944336 27.63897461 32.35944336 27.3125 33.4375 C26.97508789 34.53481445 26.97508789 34.53481445 26.63085938 35.65429688 C26.08380134 37.43514536 25.54140628 39.21742517 25 41 C20.71 41 16.42 41 12 41 C4.19851485 17.76596535 4.19851485 17.76596535 1.5 9.25 C1.2009375 8.30640625 0.901875 7.3628125 0.59375 6.390625 C0 4 0 4 0 0 Z " fill="#414142" transform="translate(155,429)"/>
<path d="M0 0 C5.15625 -0.061875 10.3125 -0.12375 15.625 -0.1875 C17.24100098 -0.21481201 18.85700195 -0.24212402 20.52197266 -0.27026367 C22.44855713 -0.28150269 22.44855713 -0.28150269 24.4140625 -0.29296875 C25.7232666 -0.3086792 27.0324707 -0.32438965 28.38134766 -0.34057617 C33.28256501 0.12071098 36.69726903 1.43672283 39.875 5.25 C41.74457238 9.82006581 41.55556956 13.53797484 39.8125 18.125 C39.544375 19.07375 39.27625 20.0225 39 21 C39.474375 21.763125 39.94875 22.52625 40.4375 23.3125 C42.45586455 26.78408702 42.23269764 28.94868238 41.6484375 32.84375 C40.63472641 36.21464471 38.74815964 37.90616409 36 40 C32.43103644 41.18965452 29.20056533 41.12489726 25.48828125 41.09765625 C24.84258179 41.09664917 24.19688232 41.09564209 23.53161621 41.09460449 C21.12522601 41.08938211 18.71886118 41.07542083 16.3125 41.0625 C10.929375 41.041875 5.54625 41.02125 0 41 C0 27.47 0 13.94 0 0 Z M11 10 C11 11.98 11 13.96 11 16 C13.81256281 16.02684312 16.62487241 16.04676188 19.4375 16.0625 C20.64116211 16.07506836 20.64116211 16.07506836 21.86914062 16.08789062 C23.91295221 16.0965143 25.95683902 16.0522815 28 16 C28.33 15.67 28.66 15.34 29 15 C29 13.35 29 11.7 29 10 C23.06 10 17.12 10 11 10 Z M11 24 C11 26.64 11 29.28 11 32 C13.60478883 32.0809313 16.20706653 32.14045434 18.8125 32.1875 C19.55048828 32.21263672 20.28847656 32.23777344 21.04882812 32.26367188 C25.28142263 32.3583722 25.28142263 32.3583722 29.02734375 30.62109375 C30.22028874 29.00713597 30.22028874 29.00713597 29.75 26.875 C29.15045529 25.01914885 29.15045529 25.01914885 28 24 C25.13732433 23.92674832 22.299281 23.90761795 19.4375 23.9375 C18.63119141 23.94201172 17.82488281 23.94652344 16.99414062 23.95117188 C14.99606244 23.96299482 12.99802217 23.98093086 11 24 Z " fill="#414142" transform="translate(269,429)"/>
<path d="M0 0 C5.15625 -0.061875 10.3125 -0.12375 15.625 -0.1875 C17.24100098 -0.21481201 18.85700195 -0.24212402 20.52197266 -0.27026367 C22.44855713 -0.28150269 22.44855713 -0.28150269 24.4140625 -0.29296875 C25.7232666 -0.3086792 27.0324707 -0.32438965 28.38134766 -0.34057617 C33.09518559 0.10307542 36.45887998 1.49456908 39.85546875 4.8125 C41.35166476 7.67212378 41.36474249 9.78507748 41.3125 13 C41.30863281 14.03125 41.30476563 15.0625 41.30078125 16.125 C41.00770713 18.92633186 40.44101632 20.61170203 39 23 C39.49113281 23.51046875 39.98226562 24.0209375 40.48828125 24.546875 C42.55122223 27.89448982 42.29577501 30.35209972 42.1875 34.25 C42.14689453 36.14492188 42.14689453 36.14492188 42.10546875 38.078125 C42.07066406 39.04234375 42.03585938 40.0065625 42 41 C37.71 41 33.42 41 29 41 C28.67 37.04 28.34 33.08 28 29 C22.72 29 17.44 29 12 29 C12 32.96 12 36.92 12 41 C8.04 41 4.08 41 0 41 C0 27.47 0 13.94 0 0 Z M12 10 C12 12.64 12 15.28 12 18 C17.61 18 23.22 18 29 18 C30.46548072 13.41715868 30.46548072 13.41715868 29.04296875 11.19921875 C25.92729521 9.37032434 22.8116798 9.68507889 19.3125 9.8125 C18.61060547 9.82603516 17.90871094 9.83957031 17.18554688 9.85351562 C15.45670171 9.88879818 13.72825235 9.94260417 12 10 Z " fill="#F7931E" transform="translate(64,429)"/>
<path d="M0 0 C5.15625 -0.061875 10.3125 -0.12375 15.625 -0.1875 C17.24100098 -0.21481201 18.85700195 -0.24212402 20.52197266 -0.27026367 C22.44855713 -0.28150269 22.44855713 -0.28150269 24.4140625 -0.29296875 C25.7232666 -0.3086792 27.0324707 -0.32438965 28.38134766 -0.34057617 C33.17197859 0.11030294 36.56660296 1.47104316 39.875 5 C41.78146469 10.08390585 42.18143413 16.28858603 39.98046875 21.33984375 C39.65691406 21.88769531 39.33335937 22.43554688 39 23 C39.49113281 23.51046875 39.98226562 24.0209375 40.48828125 24.546875 C42.55122223 27.89448982 42.29577501 30.35209972 42.1875 34.25 C42.14689453 36.14492188 42.14689453 36.14492188 42.10546875 38.078125 C42.07066406 39.04234375 42.03585937 40.0065625 42 41 C37.71 41 33.42 41 29 41 C28.67 37.04 28.34 33.08 28 29 C22.72 29 17.44 29 12 29 C12 32.96 12 36.92 12 41 C8.04 41 4.08 41 0 41 C0 27.47 0 13.94 0 0 Z M12 10 C12 12.64 12 15.28 12 18 C17.61 18 23.22 18 29 18 C30.46548072 13.41715868 30.46548072 13.41715868 29.04296875 11.19921875 C25.92729521 9.37032434 22.8116798 9.68507889 19.3125 9.8125 C18.61060547 9.82603516 17.90871094 9.83957031 17.18554688 9.85351562 C15.45670171 9.88879818 13.72825235 9.94260417 12 10 Z " fill="#F15A29" transform="translate(552,429)"/>
<path d="M0 0 C14 0 14 0 18.03515625 3.69140625 C19.09346797 5.28347518 20.10252196 6.90927608 21.0625 8.5625 C21.57748047 9.36236328 22.09246094 10.16222656 22.62304688 10.98632812 C23.59178186 12.4942066 24.54085721 14.01507477 25.46118164 15.55297852 C27.49991748 18.79496635 29.77400729 21.8836102 32 25 C32.33 16.75 32.66 8.5 33 0 C36.63 0 40.26 0 44 0 C44 13.53 44 27.06 44 41 C29 41 29 41 25.0859375 37.52734375 C24.12832502 36.03058233 23.22441715 34.49820719 22.375 32.9375 C21.91222656 32.18533203 21.44945312 31.43316406 20.97265625 30.65820312 C20.10028537 29.23906459 19.24960926 27.80612551 18.43115234 26.35522461 C16.46604901 23.12128536 14.1995081 20.07931134 12 17 C11.67 24.92 11.34 32.84 11 41 C7.37 41 3.74 41 0 41 C0 27.47 0 13.94 0 0 Z " fill="#F15A29" transform="translate(412,429)"/>
<path d="M0 0 C12.87 0 25.74 0 39 0 C39 3.3 39 6.6 39 10 C30.09 10 21.18 10 12 10 C12 11.98 12 13.96 12 16 C20.91 16 29.82 16 39 16 C39 18.97 39 21.94 39 25 C30.09 25 21.18 25 12 25 C12 27.31 12 29.62 12 32 C20.91 32 29.82 32 39 32 C39 34.97 39 37.94 39 41 C26.13 41 13.26 41 0 41 C0 27.47 0 13.94 0 0 Z " fill="#F15A29" transform="translate(367,429)"/>
<path d="M0 0 C1.5169043 -0.0299707 1.5169043 -0.0299707 3.06445312 -0.06054688 C9.41862793 -0.05640195 13.51805794 0.4431526 18.5625 4.4375 C22.29394169 9.51195547 22.04668709 14.81841102 22 20.875 C22.0299707 22.24881836 22.0299707 22.24881836 22.06054688 23.65039062 C22.05615199 29.77246657 21.28065103 33.51174436 17.5625 38.4375 C12.01575665 42.47451397 6.74492791 41.91677809 0.125 41.875 C-0.99455078 41.89498047 -2.11410156 41.91496094 -3.26757812 41.93554688 C-13.84109459 41.92927179 -13.84109459 41.92927179 -18.4375 37.4375 C-22.107782 32.27737837 -21.92200717 27.09811163 -21.875 21 C-21.9049707 19.62618164 -21.9049707 19.62618164 -21.93554688 18.22460938 C-21.93116044 12.11430888 -21.2198432 8.31489764 -17.4375 3.4375 C-12.19463329 -0.51282638 -6.29511415 -0.04396588 0 0 Z M-8.29296875 11.69921875 C-11.16434386 16.06018095 -10.76197166 21.91966221 -9.8125 26.875 C-8.80321416 30.48998707 -8.80321416 30.48998707 -6.25 31.9375 C-0.89622479 32.88928226 3.67054457 33.02735875 8.5625 30.4375 C10.07179383 27.41891234 9.78760073 24.30849046 9.8125 21 C9.833125 20.31873047 9.85375 19.63746094 9.875 18.93554688 C9.89698231 16.13005419 9.85875621 13.95803468 8.453125 11.48828125 C5.63435942 9.92165327 3.26395945 10.04086852 0.0625 10.0625 C-1.0821875 10.05476563 -2.226875 10.04703125 -3.40625 10.0390625 C-6.38691589 10.19970919 -6.38691589 10.19970919 -8.29296875 11.69921875 Z " fill="#F7931E" transform="translate(132.4375,428.5625)"/>
<path d="M0 0 C12.54 0 25.08 0 38 0 C38 3.3 38 6.6 38 10 C29.42 10 20.84 10 12 10 C12 11.98 12 13.96 12 16 C20.58 16 29.16 16 38 16 C38 18.97 38 21.94 38 25 C29.42 25 20.84 25 12 25 C12 27.31 12 29.62 12 32 C20.58 32 29.16 32 38 32 C38 34.97 38 37.94 38 41 C25.46 41 12.92 41 0 41 C0 27.47 0 13.94 0 0 Z " fill="#F15A29" transform="translate(600,429)"/>
<path d="M0 0 C12.54 0 25.08 0 38 0 C38 3.3 38 6.6 38 10 C29.42 10 20.84 10 12 10 C12 11.98 12 13.96 12 16 C20.58 16 29.16 16 38 16 C38 18.97 38 21.94 38 25 C29.42 25 20.84 25 12 25 C12 27.31 12 29.62 12 32 C20.58 32 29.16 32 38 32 C38 34.97 38 37.94 38 41 C25.46 41 12.92 41 0 41 C0 27.47 0 13.94 0 0 Z " fill="#414142" transform="translate(224,429)"/>
<path d="M0 0 C1.05692047 0.00424484 1.05692047 0.00424484 2.13519287 0.00857544 C4.3767626 0.01973449 6.61792686 0.04483057 8.859375 0.0703125 C10.38280671 0.08034786 11.90624471 0.08947274 13.4296875 0.09765625 C17.15638086 0.11965959 20.88283833 0.15415978 24.609375 0.1953125 C24.609375 3.4953125 24.609375 6.7953125 24.609375 10.1953125 C16.029375 10.5253125 7.449375 10.8553125 -1.390625 11.1953125 C-1.390625 12.5153125 -1.390625 13.8353125 -1.390625 15.1953125 C-0.81094971 15.20989502 -0.23127441 15.22447754 0.3659668 15.23950195 C3.01025053 15.31429778 5.65331502 15.41085148 8.296875 15.5078125 C9.20888672 15.53037109 10.12089844 15.55292969 11.06054688 15.57617188 C15.98093359 15.77298734 19.66805777 15.92254218 23.609375 19.1953125 C25.95630638 22.71570957 25.93661264 24.39588259 25.984375 28.5703125 C26.01273438 29.69179688 26.04109375 30.81328125 26.0703125 31.96875 C25.51596217 35.84920232 24.36665529 37.45794037 21.609375 40.1953125 C18.1031307 41.3640606 14.9615884 41.32045517 11.31640625 41.29296875 C10.25736336 41.29084633 10.25736336 41.29084633 9.17692566 41.28868103 C6.92519874 41.28309014 4.67357179 41.27053938 2.421875 41.2578125 C0.89388165 41.25279632 -0.63411327 41.24823362 -2.16210938 41.24414062 C-5.90498635 41.2331237 -9.64778873 41.21586537 -13.390625 41.1953125 C-13.390625 37.8953125 -13.390625 34.5953125 -13.390625 31.1953125 C-4.810625 30.8653125 3.769375 30.5353125 12.609375 30.1953125 C12.939375 28.5453125 13.269375 26.8953125 13.609375 25.1953125 C12.99940674 25.21102295 12.38943848 25.2267334 11.76098633 25.24291992 C8.9813779 25.30551063 6.20191808 25.34437872 3.421875 25.3828125 C2.46216797 25.40794922 1.50246094 25.43308594 0.51367188 25.45898438 C-8.52631804 25.5528251 -8.52631804 25.5528251 -12.390625 22.1953125 C-14.58691451 17.69814827 -15.02804099 13.11812525 -14.390625 8.1953125 C-12.4401895 2.92913664 -12.4401895 2.92913664 -9.74316406 1.04345703 C-6.43622963 -0.14876902 -3.51015813 -0.0278584 0 0 Z " fill="#F15A29" transform="translate(657.390625,428.8046875)"/>
<path d="M0 0 C5.135625 -0.0825 10.27125 -0.165 15.5625 -0.25 C17.16939697 -0.28641602 18.77629395 -0.32283203 20.43188477 -0.36035156 C21.71377686 -0.3703418 22.99566895 -0.38033203 24.31640625 -0.390625 C25.62037354 -0.41157227 26.92434082 -0.43251953 28.26782227 -0.45410156 C32.92153576 0.11212511 35.1631889 1.33853849 39 4 C41.88383646 8.83740309 42.9671452 13.4687988 42 19 C40.66496465 22.77882888 38.87417381 25.40993268 35.5 27.6875 C30.78042298 29.45734138 26.61520935 29.32631467 21.625 29.1875 C20.69816406 29.17396484 19.77132812 29.16042969 18.81640625 29.14648438 C16.54401792 29.11134435 14.27193138 29.05754423 12 29 C12 32.96 12 36.92 12 41 C8.04 41 4.08 41 0 41 C0 27.47 0 13.94 0 0 Z M12 10 C12 12.97 12 15.94 12 19 C17.61 19 23.22 19 29 19 C29.33 16.69 29.66 14.38 30 12 C26.31912647 9.54608431 23.55644412 9.77197241 19.3125 9.875 C18.61060547 9.88402344 17.90871094 9.89304687 17.18554688 9.90234375 C15.45688475 9.92586296 13.72839855 9.96173287 12 10 Z " fill="#F7931E" transform="translate(17,429)"/>
<path d="M0 0 C3.96 0 7.92 0 12 0 C12.33 9.57 12.66 19.14 13 29 C17.76257261 31.38128631 19.78775758 31.24820202 25 31 C25.99 30.67 26.98 30.34 28 30 C28.84287263 26.35806017 29.10702882 23.03111107 29.0625 19.296875 C29.05476562 18.2346875 29.04703125 17.1725 29.0390625 16.078125 C29.02617188 14.97984375 29.01328125 13.8815625 29 12.75 C28.97462199 10.55733956 28.9535445 8.3646236 28.9375 6.171875 C28.92589844 5.2034668 28.91429687 4.23505859 28.90234375 3.23730469 C29 1 29 1 30 0 C31.85287502 -0.07226502 33.70833878 -0.0838122 35.5625 -0.0625 C36.57441406 -0.05347656 37.58632813 -0.04445313 38.62890625 -0.03515625 C39.41136719 -0.02355469 40.19382812 -0.01195312 41 0 C41.0995024 4.28663998 41.1717631 8.57265331 41.21972656 12.86010742 C41.23973822 14.31595584 41.26695677 15.77172494 41.30175781 17.22729492 C41.66490532 32.81593586 41.66490532 32.81593586 37 38 C31.72624992 41.16683522 26.97192193 41.46518003 21 41.375 C19.84757813 41.39240234 19.84757813 41.39240234 18.671875 41.41015625 C13.38948382 41.38320527 9.67907544 40.48168685 5 38 C0.53298915 33.1803304 -0.1240706 30.5213671 -0.09765625 24.0234375 C-0.09553383 22.99556625 -0.09553383 22.99556625 -0.09336853 21.94692993 C-0.08776675 19.75624239 -0.07521406 17.5656567 -0.0625 15.375 C-0.05748522 13.89062648 -0.05292228 12.40625135 -0.04882812 10.921875 C-0.03779677 7.28121685 -0.02053099 3.64061836 0 0 Z " fill="#F15A29" transform="translate(504,429)"/>
<path d="M0 0 C4.29 0 8.58 0 13 0 C16.96 8.58 20.92 17.16 25 26 C27.39648547 22.80468604 28.88414092 20.3626982 30.48046875 16.796875 C30.92197266 15.8171875 31.36347656 14.8375 31.81835938 13.828125 C32.27017578 12.81234375 32.72199219 11.7965625 33.1875 10.75 C33.88262695 9.203125 33.88262695 9.203125 34.59179688 7.625 C35.73230091 5.08532092 36.86674189 2.54292063 38 0 C42.62 0 47.24 0 52 0 C50.12925449 4.67686376 48.08934274 9.20027139 45.9375 13.75 C45.54699463 14.57604736 45.15648926 15.40209473 44.75415039 16.25317383 C40.75412352 24.63733876 36.42332866 32.83305039 32 41 C27.71 41 23.42 41 19 41 C14.43564379 31.98054079 9.97201183 22.92545881 5.703125 13.76196289 C5.39246094 13.09543701 5.08179688 12.42891113 4.76171875 11.7421875 C4.46700684 11.10893555 4.17229492 10.47568359 3.86865234 9.82324219 C3.03641097 8.07642415 2.15397668 6.35378759 1.26953125 4.6328125 C0 2 0 2 0 0 Z " fill="#F15A29" transform="translate(312,429)"/>
<path d="M0 0 C5.67830078 -0.02464705 11.35657069 -0.04283462 17.03491211 -0.05493164 C18.96818585 -0.05997256 20.90145576 -0.06680519 22.8347168 -0.07543945 C25.60726872 -0.08751565 28.37977041 -0.09323057 31.15234375 -0.09765625 C32.45702858 -0.10539818 32.45702858 -0.10539818 33.78807068 -0.11329651 C35.85905814 -0.11349185 37.92994324 -0.06208168 40 0 C41 1 41 1 41.1328125 2.8125 C41.13023437 3.534375 41.12765625 4.25625 41.125 5 C41.12886719 6.0828125 41.12886719 6.0828125 41.1328125 7.1875 C41 9 41 9 40 10 C35.38 10 30.76 10 26 10 C26 20.23 26 30.46 26 41 C22.04 41 18.08 41 14 41 C14 30.77 14 20.54 14 10 C9.38 10 4.76 10 0 10 C0 6.7 0 3.4 0 0 Z " fill="#F15A29" transform="translate(460,429)"/>
</svg>
